<?xml version="1.0" encoding="utf-8"?>
<!-- Generator: Adobe Illustrator 16.0.2, SVG Export Plug-In . SVG Version: 6.00 Build 0)  -->
<!DOCTYPE svg PUBLIC "-//W3C//DTD SVG 1.0//EN" "http://www.w3.org/TR/2001/REC-SVG-20010904/DTD/svg10.dtd">
<svg version="1.0" id="Layer_1" xmlns="http://www.w3.org/2000/svg" xmlns:xlink="http://www.w3.org/1999/xlink" x="0px" y="0px"
	 width="720px" height="540px" viewBox="0 0 720 540" enable-background="new 0 0 720 540" xml:space="preserve">
<path fill="#FFFFFF" stroke="#000000" stroke-width="2" stroke-miterlimit="10" d="M613.49,22.568H111.009
	c-50.347,0-91.312,40.96-91.312,91.31v240.773c0,50.35,40.965,91.311,91.312,91.311h304.237l160.498,74.742l-19.621-74.742
	l57.367-2.624c50.348,0,91.313-38.337,91.313-88.687V113.878C704.803,63.528,663.838,22.568,613.49,22.568z"/>
<g>
	<path d="M503.889,56.583l-0.914,7.449h3.336v2.331h-3.701l-1.326,10.511h-2.468l1.326-10.511h-4.662l-1.325,10.511h-2.468
		l1.325-10.511h-3.29v-2.331h3.61l0.96-7.449h-3.337v-2.285h3.656l1.279-9.963h2.468l-1.279,9.963h4.661l1.28-9.963h2.468
		l-1.28,9.963h3.291v2.285H503.889z M496.76,56.583l-0.96,7.449h4.661l0.96-7.449H496.76z"/>
	<path d="M525.368,76.874l-6.307-16.086l-3.153,6.215v9.871h-2.696V44.335h2.696v17.686l8.638-17.686h2.879l-6.673,13.436
		l7.541,19.103H525.368z"/>
	<path d="M533.137,65.632c0,4.753,0.138,7.083,1.188,8.271c0.503,0.594,1.325,1.051,2.331,1.051c0.914,0,1.782-0.274,2.376-0.914
		c0.686-0.731,1.006-1.874,1.006-3.291h2.514c0,2.24-0.503,3.656-1.691,4.89c-1.051,1.097-2.514,1.6-4.204,1.6
		c-1.782,0-3.153-0.594-4.204-1.691c-1.509-1.646-1.874-4.753-1.874-10.283c0-5.575,0.319-8.637,1.874-10.328
		c1.005-1.097,2.376-1.691,4.158-1.691s3.153,0.594,4.159,1.691c1.554,1.691,1.873,4.753,1.873,10.694H533.137z M538.896,56.583
		c-0.503-0.594-1.234-1.051-2.285-1.051s-1.828,0.457-2.331,1.051c-0.914,1.051-1.097,2.971-1.143,6.992h6.947
		C540.038,59.554,539.81,57.634,538.896,56.583z"/>
	<path d="M549.086,65.632c0,4.753,0.138,7.083,1.188,8.271c0.503,0.594,1.325,1.051,2.331,1.051c0.914,0,1.782-0.274,2.376-0.914
		c0.686-0.731,1.006-1.874,1.006-3.291h2.514c0,2.24-0.503,3.656-1.691,4.89c-1.051,1.097-2.514,1.6-4.204,1.6
		c-1.782,0-3.153-0.594-4.204-1.691c-1.509-1.646-1.874-4.753-1.874-10.283c0-5.575,0.319-8.637,1.874-10.328
		c1.005-1.097,2.376-1.691,4.158-1.691s3.153,0.594,4.159,1.691c1.554,1.691,1.873,4.753,1.873,10.694H549.086z M554.845,56.583
		c-0.503-0.594-1.234-1.051-2.285-1.051s-1.828,0.457-2.331,1.051c-0.914,1.051-1.097,2.971-1.143,6.992h6.947
		C555.987,59.554,555.759,57.634,554.845,56.583z"/>
	<path d="M573.354,75.594c-0.96,1.097-2.012,1.646-3.61,1.646c-1.098,0-1.92-0.229-2.651-0.731
		c-0.411-0.274-0.959-0.868-1.279-1.371v11.014h-2.56V53.613h2.514v1.874c0.229-0.502,0.914-1.143,1.325-1.417
		c0.731-0.503,1.554-0.823,2.651-0.823c1.416,0,2.65,0.548,3.61,1.645c1.416,1.646,1.736,4.57,1.736,10.374
		C575.09,71.07,574.77,73.949,573.354,75.594z M571.342,56.583c-0.502-0.594-1.279-1.051-2.239-1.051
		c-0.868,0-1.645,0.32-2.193,0.868c-0.731,0.686-1.097,1.691-1.097,3.199v11.288c0,1.508,0.365,2.514,1.097,3.199
		c0.549,0.548,1.325,0.868,2.193,0.868c0.96,0,1.737-0.411,2.239-1.005c1.052-1.234,1.188-3.428,1.188-8.683
		S572.394,57.771,571.342,56.583z"/>
	<path d="M591.359,76.874l-1.782-8.912h-7.587l-1.736,8.912h-2.925l7.267-32.539h2.514l7.129,32.539H591.359z M585.784,49.18
		l-3.245,16.361h6.535L585.784,49.18z"/>
	<path d="M609.411,76.874l-9.095-25.364v25.364h-2.696V44.335h2.696l9.049,25.364V44.335h2.696v32.539H609.411z"/>
	<path d="M627.6,75.412c-1.006,1.234-2.422,1.828-4.296,1.828s-3.29-0.594-4.296-1.828c-1.417-1.691-1.736-4.662-1.736-10.146
		s0.319-8.455,1.736-10.146c1.006-1.234,2.422-1.874,4.296-1.874s3.29,0.64,4.296,1.874c1.417,1.691,1.736,4.662,1.736,10.146
		S629.017,73.721,627.6,75.412z M625.589,56.583c-0.503-0.594-1.279-1.051-2.285-1.051c-1.005,0-1.828,0.457-2.331,1.051
		c-1.051,1.28-1.143,3.702-1.143,8.683s0.092,7.358,1.143,8.637c0.503,0.594,1.326,1.051,2.331,1.051
		c1.006,0,1.782-0.457,2.285-1.051c1.051-1.279,1.188-3.656,1.188-8.637S626.64,57.863,625.589,56.583z"/>
	<path d="M636.647,75.412c-1.142-1.051-1.736-2.605-1.736-4.753V55.624h-2.833v-2.011h2.833v-6.81h2.56v6.81h3.976v2.011h-3.976
		v15.035c0,2.788,1.462,3.93,4.158,3.93v2.285C639.756,76.874,638.019,76.691,636.647,75.412z"/>
	<path d="M647.158,65.632c0,4.753,0.138,7.083,1.188,8.271c0.503,0.594,1.325,1.051,2.331,1.051c0.914,0,1.782-0.274,2.376-0.914
		c0.686-0.731,1.006-1.874,1.006-3.291h2.514c0,2.24-0.503,3.656-1.691,4.89c-1.051,1.097-2.514,1.6-4.204,1.6
		c-1.782,0-3.153-0.594-4.204-1.691c-1.509-1.646-1.874-4.753-1.874-10.283c0-5.575,0.319-8.637,1.874-10.328
		c1.005-1.097,2.376-1.691,4.158-1.691s3.153,0.594,4.159,1.691c1.554,1.691,1.873,4.753,1.873,10.694H647.158z M652.917,56.583
		c-0.503-0.594-1.234-1.051-2.285-1.051s-1.828,0.457-2.331,1.051c-0.914,1.051-1.097,2.971-1.143,6.992h6.947
		C654.06,59.554,653.831,57.634,652.917,56.583z"/>
</g>
<g>
	<g>
		<path d="M104.183,63.43c0,0-2.033,0.14-2.033,2.324v8.02h-5.558V59.375h5.149l0.144,1.564c0,0,1.928-2.025,4.942-2.025
			c3.012,0,5.167,2.427,5.199,5.767v9.093h-5.832v-7.987v-0.323v-0.342C106.195,65.122,106.255,63.43,104.183,63.43L104.183,63.43z"
			/>
		<path d="M72.646,62.82l-3.608,0.002v-4.138h3.608c0,0,2.083-0.016,2.083,2.024C74.729,62.751,72.646,62.82,72.646,62.82
			L72.646,62.82z M75.003,53.947c-1.073-0.21-3.173-0.139-3.173-0.139h-2.792h-6.165v19.964h6.165v-6.098h3.929l0.091,0.009
			c0.891,0,1.997-0.165,1.997-0.165c0.76-0.099,1.419-0.374,1.988-0.641c3.563-1.68,3.594-6.134,3.594-6.134
			C80.636,54.663,75.003,53.947,75.003,53.947L75.003,53.947z"/>
		<path d="M128.502,68.987c0,5.704,7.51,5.218,7.51,5.218c7.671,0,7.255-5.146,7.255-5.146c0-2.783-2.543-3.863-4.056-4.249
			c-1.533-0.384-2.873-0.633-4.015-0.826c-1.141-0.193-1.11-0.833-1.11-0.833c0-0.927,1.585-1.013,1.585-1.013
			c2.049,0,1.93,1.414,1.93,1.414h5.095c0-4.966-7.024-4.499-7.024-4.499s-7.065-0.211-7.065,4.738c0,3.822,5.048,4.295,5.048,4.295
			c1.231,0.163,3.07,0.545,3.07,0.545c1.084,0.336,0.975,1.13,0.975,1.13c0,1.199-1.653,1.222-1.653,1.222
			c-2.619,0-2.389-1.997-2.389-1.997H128.502L128.502,68.987z"/>
		<path d="M87.134,70.921c-1.021,0-1.714-0.405-1.714-1.319c0-0.916,1.373-1.199,1.373-1.199c1.748-0.404,3.059-1.012,3.059-1.012
			C90.463,70.988,87.134,70.921,87.134,70.921L87.134,70.921z M95.226,69.198v-4.74c-0.013-5.653-7.059-5.419-7.059-5.419
			c-8.456,0-7.161,5.29-7.161,5.29l4.913,0.099c0-0.436,0.159-1.904,2.067-1.904c1.907,0,1.831,1.267,1.831,1.267
			s0.004,0.738-0.654,0.966c-0.66,0.23-2.888,0.628-2.888,0.628l-1.143,0.209c-3.294,0.659-4.871,2.141-4.871,4.358
			c0,2.219,1.625,4.229,4.853,4.229c3.228,0,4.642-1.812,4.642-1.812c0.175,1.163,0.552,1.404,0.552,1.404h5.628
			C95.147,73.406,95.226,69.198,95.226,69.198L95.226,69.198z"/>
		<path d="M119.517,70.921c-1.013,0-1.712-0.405-1.712-1.319c0-0.916,1.373-1.199,1.373-1.199c1.745-0.404,3.058-1.012,3.058-1.012
			C122.852,70.988,119.517,70.921,119.517,70.921L119.517,70.921z M127.61,69.198v-4.74c-0.014-5.653-7.058-5.419-7.058-5.419
			c-8.462,0-7.16,5.29-7.16,5.29l4.906,0.099c0-0.436,0.166-1.904,2.075-1.904c1.907,0,1.83,1.267,1.83,1.267
			s0.007,0.738-0.651,0.966c-0.663,0.23-2.896,0.628-2.896,0.628l-1.142,0.209c-3.291,0.659-4.867,2.141-4.867,4.358
			c0,2.219,1.627,4.229,4.853,4.229c3.23,0,4.641-1.812,4.641-1.812c0.177,1.163,0.55,1.404,0.55,1.404h5.629
			C127.534,73.406,127.61,69.198,127.61,69.198L127.61,69.198z"/>
		<path d="M154.063,66.874c-0.039,3.162-1.505,3.721-2.155,3.804c-0.372,0.05-0.549,0.012-0.549,0.012
			c-0.595-0.057-2.147-0.515-2.229-3.694v-0.449c0.07-3.206,1.634-3.662,2.229-3.721c0,0,0.178-0.038,0.549,0.01
			c0.65,0.084,2.116,0.644,2.155,3.817V66.874L154.063,66.874z M157.007,60.759c-0.333-0.258-0.733-0.492-1.121-0.725
			c0,0-0.524-0.266-1.362-0.522c-0.718-0.221-1.664-0.43-2.699-0.456l-0.375-0.005c-1.044,0.022-2.006,0.236-2.734,0.458
			c-0.832,0.256-1.36,0.52-1.36,0.52c-0.392,0.236-0.789,0.467-1.117,0.729c-2.516,1.999-2.69,4.987-2.698,5.707v0.381
			c0.017,0.812,0.247,3.702,2.698,5.646c0.328,0.264,0.725,0.494,1.117,0.73c0,0,0.528,0.265,1.36,0.516
			c0.728,0.222,1.69,0.438,2.734,0.459l0.375-0.005c1.035-0.024,1.98-0.238,2.699-0.455c0.838-0.257,1.362-0.518,1.362-0.518
			c0.388-0.239,0.789-0.47,1.121-0.733c2.463-1.952,2.685-4.863,2.695-5.658v-0.358C159.699,65.751,159.522,62.759,157.007,60.759
			L157.007,60.759z"/>
		<path d="M168.053,63.43c0,0-2.038,0.14-2.038,2.324v8.02h-5.56V59.375h5.153l0.144,1.564c0,0,1.923-2.025,4.937-2.025
			c3.018,0,5.176,2.427,5.205,5.767v9.093h-5.834v-7.987v-0.323v-0.342C170.06,65.122,170.119,63.43,168.053,63.43L168.053,63.43z"
			/>
		<polygon points="176.909,73.774 182.367,73.774 182.367,59.371 176.909,59.371 176.909,73.774 		"/>
		<polygon points="176.909,57.384 182.367,57.384 182.367,53.805 176.909,53.805 176.909,57.384 		"/>
		<path d="M197.882,64.792h-4.729c0,0-0.166-1.76-2.058-1.76c0,0-2.6-0.21-2.6,3.631c0,3.836,2.71,3.626,2.71,3.626
			s2.143,0.141,2.143-2.5h5.029v0.229c-0.049,1.139-0.627,6.164-7.516,6.164c0,0-4.661,0.449-7.084-4.378
			c0,0-0.629-1.555-0.629-3.426c0-1.865,0.709-6.698,7.556-7.298l0.41-0.005c6.944,0.14,7.085,5.717,7.085,5.717H197.882
			L197.882,64.792z"/>
	</g>
	<g>
		<path d="M212.307,60.787c0-0.554,0.101-1.065,0.302-1.533c0.202-0.468,0.497-0.873,0.885-1.214
			c0.389-0.342,0.862-0.608,1.419-0.799s1.192-0.286,1.905-0.286h0.55c1.274,0,2.288,0.281,3.044,0.842
			c0.755,0.562,1.266,1.439,1.533,2.633l-2.137,0.399c-0.072-0.41-0.189-0.743-0.351-0.998c-0.162-0.255-0.353-0.454-0.572-0.594
			s-0.464-0.234-0.734-0.281c-0.27-0.047-0.545-0.07-0.826-0.07h-0.486c-0.331,0-0.64,0.038-0.928,0.113
			c-0.288,0.075-0.538,0.196-0.75,0.361c-0.212,0.166-0.379,0.376-0.502,0.631c-0.122,0.255-0.184,0.563-0.184,0.923v0.292
			c0,0.36,0.063,0.658,0.189,0.896c0.126,0.237,0.284,0.435,0.475,0.593c0.19,0.158,0.396,0.283,0.615,0.373
			c0.219,0.09,0.426,0.167,0.621,0.232l2.482,0.799c0.496,0.158,0.946,0.351,1.349,0.578c0.403,0.227,0.747,0.493,1.031,0.798
			c0.284,0.306,0.503,0.653,0.658,1.042s0.232,0.828,0.232,1.317v0.885c0,0.555-0.106,1.07-0.318,1.549
			c-0.212,0.479-0.518,0.895-0.917,1.247c-0.399,0.353-0.885,0.63-1.457,0.831c-0.572,0.202-1.214,0.302-1.926,0.302h-0.669
			c-0.453,0-0.903-0.031-1.349-0.092c-0.446-0.061-0.874-0.158-1.284-0.291s-0.793-0.301-1.149-0.502
			c-0.356-0.201-0.671-0.443-0.944-0.723v-2.45c0.28,0.345,0.603,0.651,0.966,0.917s0.752,0.487,1.166,0.664
			c0.414,0.177,0.846,0.31,1.295,0.399c0.45,0.09,0.905,0.135,1.365,0.135h0.442c0.799,0,1.43-0.174,1.894-0.523
			c0.464-0.349,0.696-0.887,0.696-1.614v-0.421c0-0.295-0.032-0.552-0.097-0.772c-0.064-0.219-0.166-0.41-0.302-0.572
			c-0.137-0.162-0.309-0.304-0.518-0.426c-0.208-0.123-0.457-0.234-0.745-0.335l-2.32-0.723c-0.54-0.166-1.033-0.365-1.479-0.599
			c-0.446-0.234-0.831-0.511-1.155-0.831c-0.324-0.32-0.574-0.692-0.75-1.117s-0.264-0.91-0.264-1.457V60.787z"/>
		<path d="M226.77,72.432h-2.148V61.51c0.266-0.058,0.576-0.113,0.928-0.167c0.353-0.054,0.721-0.101,1.106-0.14
			c0.385-0.04,0.766-0.072,1.144-0.097s0.729-0.038,1.052-0.038c0.288,0,0.574,0.012,0.858,0.038s0.556,0.061,0.815,0.108
			c0.259,0.047,0.5,0.106,0.723,0.178s0.417,0.151,0.583,0.237c0.208-0.065,0.457-0.129,0.745-0.194
			c0.288-0.064,0.599-0.124,0.934-0.178c0.334-0.054,0.68-0.099,1.036-0.135c0.356-0.036,0.703-0.054,1.042-0.054
			c0.749,0,1.412,0.091,1.991,0.275s1.067,0.434,1.462,0.75c0.396,0.317,0.696,0.691,0.901,1.123s0.308,0.896,0.308,1.393v7.825
			h-2.137v-7.49c0-0.655-0.219-1.162-0.658-1.522s-1.062-0.54-1.867-0.54c-0.353,0-0.718,0.025-1.096,0.076
			c-0.377,0.05-0.703,0.115-0.977,0.194v9.282h-2.148v-9.001c-0.115-0.079-0.264-0.152-0.448-0.221
			c-0.184-0.068-0.387-0.127-0.61-0.178s-0.458-0.088-0.707-0.114c-0.248-0.025-0.498-0.038-0.75-0.038
			c-0.18,0-0.365,0.007-0.556,0.021c-0.191,0.015-0.378,0.036-0.562,0.065c-0.183,0.029-0.358,0.058-0.523,0.086
			s-0.313,0.061-0.442,0.097V72.432z"/>
		<path d="M247.427,62.88c-0.554,0-1.027,0.097-1.419,0.292s-0.714,0.482-0.966,0.863l-1.608-1.036
			c0.331-0.576,0.833-1.042,1.505-1.397c0.673-0.356,1.52-0.534,2.542-0.534c0.69,0,1.304,0.075,1.84,0.227
			c0.536,0.151,0.989,0.387,1.36,0.707c0.37,0.32,0.651,0.729,0.842,1.225c0.19,0.497,0.286,1.09,0.286,1.781v7.091
			c-0.338,0.079-0.7,0.153-1.084,0.221s-0.779,0.126-1.182,0.173c-0.403,0.047-0.809,0.084-1.219,0.113
			c-0.41,0.028-0.81,0.043-1.198,0.043c-0.806,0-1.495-0.086-2.067-0.259c-0.572-0.173-1.038-0.414-1.397-0.723
			s-0.624-0.68-0.793-1.112c-0.169-0.432-0.253-0.903-0.253-1.414v-0.27c0-0.525,0.09-0.995,0.27-1.409
			c0.18-0.414,0.446-0.765,0.799-1.052s0.784-0.509,1.295-0.664c0.511-0.155,1.093-0.232,1.748-0.232h2.936v-0.313
			c0-0.41-0.038-0.762-0.114-1.058c-0.075-0.295-0.198-0.536-0.367-0.723c-0.169-0.187-0.39-0.324-0.664-0.41
			c-0.273-0.086-0.604-0.129-0.993-0.129H247.427z M244.761,69.076c0,0.245,0.04,0.475,0.119,0.691
			c0.08,0.216,0.211,0.404,0.394,0.566c0.184,0.162,0.426,0.288,0.729,0.378c0.302,0.09,0.676,0.135,1.123,0.135
			c0.208,0,0.432-0.007,0.669-0.021c0.238-0.015,0.472-0.033,0.702-0.054c0.23-0.021,0.448-0.048,0.653-0.081
			c0.205-0.032,0.376-0.063,0.513-0.092v-3.356h-2.85c-0.367,0-0.682,0.045-0.944,0.135c-0.263,0.09-0.475,0.212-0.637,0.367
			c-0.162,0.155-0.281,0.334-0.356,0.54c-0.075,0.205-0.113,0.423-0.113,0.653V69.076z"/>
		<path d="M258.792,62.902c-0.331,0-0.657,0.025-0.977,0.076s-0.613,0.108-0.879,0.173v9.282h-2.148V61.51
			c0.237-0.058,0.516-0.111,0.836-0.162c0.32-0.05,0.658-0.097,1.015-0.14c0.356-0.043,0.719-0.077,1.09-0.103
			s0.725-0.038,1.063-0.038c0.331,0,0.676,0.023,1.036,0.07c0.359,0.047,0.684,0.121,0.971,0.221v2.029
			c-0.266-0.122-0.578-0.234-0.934-0.334C259.51,62.953,259.152,62.902,258.792,62.902z"/>
		<path d="M262.052,61.38h1.414v-2.806l2.137-0.151v2.958h2.742v1.727h-2.742v5.947c0,0.597,0.119,1.045,0.356,1.343
			c0.237,0.299,0.629,0.448,1.176,0.448c0.288,0,0.554-0.021,0.799-0.065c0.245-0.043,0.493-0.097,0.745-0.162v1.77
			c-0.137,0.036-0.295,0.068-0.475,0.097c-0.18,0.028-0.371,0.056-0.572,0.081c-0.202,0.025-0.407,0.045-0.615,0.06
			s-0.414,0.021-0.615,0.021c-0.604,0-1.097-0.09-1.479-0.27s-0.68-0.425-0.896-0.734c-0.216-0.31-0.363-0.666-0.442-1.069
			c-0.079-0.403-0.119-0.824-0.119-1.263v-6.206h-1.414V61.38z"/>
		<path d="M278.036,66.248v6.185h-2.159v-15.25h4.943c0.755,0,1.428,0.094,2.018,0.281c0.59,0.187,1.088,0.46,1.495,0.82
			c0.406,0.36,0.716,0.808,0.928,1.344s0.318,1.157,0.318,1.862c0,0.712-0.104,1.361-0.313,1.948
			c-0.209,0.587-0.515,1.087-0.917,1.5c-0.403,0.414-0.896,0.736-1.479,0.966c-0.583,0.23-1.252,0.345-2.008,0.345H278.036z
			 M280.799,64.294c0.381,0,0.73-0.052,1.047-0.157c0.316-0.104,0.588-0.268,0.815-0.491c0.227-0.223,0.401-0.511,0.523-0.863
			c0.122-0.353,0.183-0.777,0.183-1.273c0-0.468-0.064-0.854-0.194-1.16c-0.13-0.306-0.308-0.549-0.534-0.729
			c-0.227-0.18-0.497-0.308-0.81-0.383s-0.657-0.113-1.031-0.113h-2.763v5.17H280.799z"/>
		<path d="M290.06,72.432h-2.148v-15.25h2.148v4.177c0.108-0.028,0.265-0.059,0.47-0.091c0.205-0.033,0.426-0.063,0.664-0.092
			s0.477-0.054,0.718-0.076c0.241-0.021,0.455-0.032,0.642-0.032c0.777,0,1.446,0.086,2.008,0.259
			c0.561,0.173,1.023,0.412,1.387,0.718c0.363,0.306,0.633,0.671,0.81,1.096c0.176,0.424,0.264,0.885,0.264,1.381v7.911h-2.148
			v-7.469c0-0.302-0.054-0.581-0.162-0.836s-0.268-0.475-0.48-0.658s-0.48-0.328-0.804-0.432c-0.324-0.104-0.701-0.157-1.133-0.157
			c-0.223,0-0.444,0.009-0.664,0.027c-0.219,0.018-0.426,0.04-0.621,0.065s-0.374,0.052-0.54,0.081s-0.302,0.054-0.41,0.076V72.432z
			"/>
		<path d="M308.958,68.126c0,0.82-0.095,1.516-0.286,2.088c-0.19,0.572-0.469,1.038-0.836,1.397
			c-0.367,0.36-0.815,0.623-1.344,0.788s-1.127,0.248-1.797,0.248h-0.799c-0.676,0-1.275-0.083-1.797-0.248
			s-0.962-0.428-1.322-0.788s-0.633-0.826-0.82-1.397c-0.187-0.572-0.28-1.268-0.28-2.088V65.6c0-0.82,0.093-1.516,0.28-2.088
			c0.187-0.572,0.46-1.04,0.82-1.403s0.801-0.628,1.322-0.793s1.121-0.248,1.797-0.248h0.799c0.669,0,1.268,0.083,1.797,0.248
			s0.977,0.43,1.344,0.793c0.367,0.363,0.646,0.831,0.836,1.403c0.191,0.572,0.286,1.268,0.286,2.088V68.126z M301.813,68.029
			c0,0.432,0.031,0.822,0.092,1.171s0.169,0.644,0.324,0.885c0.155,0.242,0.362,0.428,0.621,0.562c0.259,0.133,0.586,0.2,0.982,0.2
			h0.971c0.389,0,0.712-0.066,0.971-0.2c0.259-0.133,0.466-0.32,0.621-0.562c0.154-0.241,0.262-0.536,0.324-0.885
			c0.061-0.349,0.092-0.739,0.092-1.171v-2.342c0-0.432-0.031-0.82-0.092-1.166c-0.062-0.345-0.169-0.638-0.324-0.88
			c-0.155-0.241-0.362-0.428-0.621-0.561c-0.259-0.133-0.583-0.2-0.971-0.2h-0.971c-0.396,0-0.723,0.066-0.982,0.2
			c-0.259,0.133-0.466,0.32-0.621,0.561c-0.154,0.242-0.263,0.535-0.324,0.88s-0.092,0.734-0.092,1.166V68.029z"/>
		<path d="M313.858,72.432h-2.147V61.51c0.295-0.058,0.622-0.113,0.982-0.167c0.36-0.054,0.734-0.101,1.123-0.14
			s0.779-0.072,1.171-0.097s0.768-0.038,1.128-0.038c0.828,0,1.538,0.083,2.132,0.248c0.593,0.166,1.081,0.399,1.462,0.702
			s0.662,0.666,0.842,1.09c0.18,0.425,0.27,0.896,0.27,1.414v7.911h-2.147v-7.469c0-0.654-0.227-1.166-0.68-1.533
			c-0.453-0.367-1.079-0.55-1.878-0.55c-0.202,0-0.412,0.007-0.631,0.021c-0.219,0.015-0.432,0.036-0.637,0.065
			s-0.394,0.058-0.567,0.086c-0.172,0.029-0.313,0.061-0.421,0.097V72.432z"/>
		<path d="M332.67,67.306h-7.059v0.529c0,0.54,0.054,1,0.162,1.381c0.108,0.382,0.27,0.693,0.486,0.934
			c0.216,0.241,0.48,0.417,0.793,0.529c0.313,0.112,0.674,0.167,1.084,0.167c0.439,0,0.86-0.05,1.263-0.151
			c0.403-0.101,0.781-0.227,1.133-0.378c0.353-0.151,0.676-0.318,0.971-0.502c0.295-0.184,0.551-0.358,0.767-0.523v2.062
			c-0.223,0.18-0.479,0.349-0.767,0.507c-0.288,0.158-0.606,0.295-0.955,0.41c-0.349,0.115-0.727,0.207-1.133,0.275
			c-0.406,0.068-0.84,0.103-1.3,0.103c-0.698,0-1.331-0.086-1.899-0.259c-0.569-0.173-1.056-0.444-1.463-0.815
			c-0.406-0.371-0.721-0.847-0.944-1.43c-0.223-0.583-0.334-1.281-0.334-2.094v-2.224c0-0.777,0.106-1.46,0.318-2.05
			s0.513-1.086,0.901-1.49c0.389-0.403,0.86-0.707,1.414-0.912c0.554-0.205,1.169-0.308,1.846-0.308h0.249
			c0.626,0,1.21,0.09,1.753,0.27c0.543,0.18,1.017,0.457,1.419,0.831s0.72,0.847,0.95,1.419c0.23,0.572,0.346,1.25,0.346,2.034
			V67.306z M327.106,62.978c-0.292,0.094-0.547,0.248-0.766,0.464c-0.22,0.216-0.392,0.496-0.518,0.842
			c-0.126,0.345-0.196,0.77-0.21,1.273h4.911c0-0.95-0.205-1.641-0.615-2.072s-1-0.647-1.77-0.647h-0.086
			C327.713,62.837,327.398,62.884,327.106,62.978z"/>
		<path d="M343.096,69.378c0,0.54-0.079,1.013-0.237,1.419c-0.158,0.407-0.414,0.747-0.767,1.02
			c-0.352,0.274-0.813,0.48-1.381,0.621c-0.568,0.141-1.263,0.21-2.083,0.21c-0.849,0-1.599-0.093-2.25-0.28
			c-0.651-0.188-1.189-0.475-1.614-0.864v-2.104c0.208,0.201,0.452,0.389,0.729,0.561c0.277,0.173,0.581,0.322,0.912,0.448
			c0.331,0.125,0.685,0.225,1.063,0.296c0.378,0.072,0.771,0.108,1.182,0.108c0.432,0,0.795-0.027,1.09-0.081
			c0.295-0.054,0.531-0.141,0.707-0.259s0.304-0.268,0.383-0.448s0.119-0.396,0.119-0.647c0-0.31-0.086-0.56-0.259-0.75
			c-0.173-0.191-0.399-0.351-0.68-0.48c-0.28-0.129-0.601-0.243-0.96-0.34s-0.729-0.202-1.106-0.313
			c-0.377-0.112-0.746-0.247-1.106-0.405s-0.68-0.365-0.96-0.621c-0.281-0.255-0.507-0.574-0.68-0.956
			c-0.173-0.381-0.259-0.853-0.259-1.414c0-0.54,0.088-1,0.264-1.382c0.176-0.381,0.424-0.694,0.745-0.939
			c0.32-0.244,0.707-0.424,1.161-0.54c0.453-0.115,0.96-0.172,1.521-0.172h0.594c0.475,0,0.903,0.047,1.284,0.14
			s0.725,0.225,1.031,0.394s0.576,0.372,0.81,0.61c0.234,0.237,0.441,0.5,0.621,0.788l-1.662,1.23
			c-0.108-0.173-0.23-0.338-0.367-0.497c-0.137-0.158-0.29-0.298-0.458-0.421c-0.169-0.122-0.36-0.221-0.572-0.297
			c-0.212-0.075-0.448-0.113-0.707-0.113h-0.551c-1.043,0-1.565,0.399-1.565,1.198c0,0.317,0.086,0.572,0.259,0.766
			c0.172,0.194,0.399,0.356,0.68,0.486s0.601,0.239,0.961,0.329c0.359,0.09,0.729,0.189,1.106,0.297
			c0.378,0.108,0.747,0.239,1.106,0.394s0.68,0.36,0.96,0.615s0.507,0.576,0.68,0.96C343.01,68.333,343.096,68.81,343.096,69.378z"
			/>
	</g>
	
		<line fill="none" stroke="#000000" stroke-width="0.7368" stroke-miterlimit="10" x1="206.237" y1="50.359" x2="206.237" y2="77.989"/>
</g>
</svg>
