<svg version="1.1"
	 id="svg2" xmlns:dc="http://purl.org/dc/elements/1.1/" xmlns:cc="http://creativecommons.org/ns#" xmlns:rdf="http://www.w3.org/1999/02/22-rdf-syntax-ns#" xmlns:svg="http://www.w3.org/2000/svg" xmlns:sodipodi="http://sodipodi.sourceforge.net/DTD/sodipodi-0.dtd" xmlns:inkscape="http://www.inkscape.org/namespaces/inkscape" inkscape:version="0.47 r22583" sodipodi:docname="splash.svg"
	 xmlns="http://www.w3.org/2000/svg" xmlns:xlink="http://www.w3.org/1999/xlink" x="0px" y="0px" width="583.137px"
	 height="586.938px" viewBox="-680.5 907.5 583.137 586.938" style="enable-background:new -680.5 907.5 583.137 586.938;"
	 xml:space="preserve">
<defs>
	
	
		<inkscape:perspective  sodipodi:type="inkscape:persp3d" inkscape:vp_x="0 : 526.18109 : 1" inkscape:vp_y="0 : 1000 : 0" inkscape:vp_z="744.09448 : 526.18109 : 1" id="perspective10" inkscape:persp3d-origin="372.04724 : 350.78739 : 1">
		</inkscape:perspective>
	
		<inkscape:perspective  sodipodi:type="inkscape:persp3d" inkscape:vp_x="0 : 0.5 : 1" inkscape:vp_y="0 : 1000 : 0" inkscape:vp_z="1 : 0.5 : 1" id="perspective2884" inkscape:persp3d-origin="0.5 : 0.33333333 : 1">
		</inkscape:perspective>
	
		<inkscape:perspective  sodipodi:type="inkscape:persp3d" inkscape:vp_x="0 : 0.5 : 1" inkscape:vp_y="0 : 1000 : 0" inkscape:vp_z="1 : 0.5 : 1" id="perspective3696" inkscape:persp3d-origin="0.5 : 0.33333333 : 1">
		</inkscape:perspective>
	
		<inkscape:perspective  sodipodi:type="inkscape:persp3d" inkscape:vp_x="0 : 0.5 : 1" inkscape:vp_y="0 : 1000 : 0" inkscape:vp_z="1 : 0.5 : 1" id="perspective3718" inkscape:persp3d-origin="0.5 : 0.33333333 : 1">
		</inkscape:perspective>
	
		<inkscape:perspective  sodipodi:type="inkscape:persp3d" inkscape:vp_x="0 : 0.5 : 1" inkscape:vp_y="0 : 1000 : 0" inkscape:vp_z="1 : 0.5 : 1" id="perspective3753" inkscape:persp3d-origin="0.5 : 0.33333333 : 1">
		</inkscape:perspective>
	
		<inkscape:perspective  sodipodi:type="inkscape:persp3d" inkscape:vp_x="0 : 0.5 : 1" inkscape:vp_y="0 : 1000 : 0" inkscape:vp_z="1 : 0.5 : 1" id="perspective3775" inkscape:persp3d-origin="0.5 : 0.33333333 : 1">
		</inkscape:perspective>
	
		<inkscape:perspective  sodipodi:type="inkscape:persp3d" inkscape:vp_x="0 : 0.5 : 1" inkscape:vp_y="0 : 1000 : 0" inkscape:vp_z="1 : 0.5 : 1" id="perspective3797" inkscape:persp3d-origin="0.5 : 0.33333333 : 1">
		</inkscape:perspective>
	
		<inkscape:perspective  sodipodi:type="inkscape:persp3d" inkscape:vp_x="0 : 0.5 : 1" inkscape:vp_y="0 : 1000 : 0" inkscape:vp_z="1 : 0.5 : 1" id="perspective3819" inkscape:persp3d-origin="0.5 : 0.33333333 : 1">
		</inkscape:perspective>
</defs>
<sodipodi:namedview  pagecolor="#ffffff" bordercolor="#666666" borderopacity="1.0" inkscape:zoom="0.66415557" inkscape:cx="341.19846" inkscape:cy="261.27674" showgrid="false" id="base" inkscape:pageopacity="0.0" inkscape:pageshadow="2" inkscape:document-units="px" inkscape:current-layer="layer3" inkscape:window-width="1141" inkscape:window-height="914" inkscape:window-x="48" inkscape:window-y="48" inkscape:window-maximized="0">
	</sodipodi:namedview>
<g id="layer3" transform="translate(-96.657501,-249.35538)" inkscape:label="Calque" inkscape:groupmode="layer">
	<g id="g3883">
		<path id="path3686" sodipodi:nodetypes="cczzzs" style="&st0;" d="M-118.132,1193.475c-3.539-0.75-2.332-4.467-2.064-7.596
			l14.863-22.141c5.214-7.769,8.739-6.677,12.045,0.377c3.307,7.053-1.127,12.097-5.646,17.127
			C-103.454,1186.272-112.135,1194.747-118.132,1193.475z"/>
		<path id="path3686-3" sodipodi:nodetypes="cszzc" style="&st0;" d="M-384.062,1654.311c-4.625,10.832-7.796,22.549-9.36,30.99
			c-1.629,8.785-7.931,7.621-12.011,0.986c-4.081-6.635-0.245-12.146,3.677-17.656
			C-397.834,1663.123-390.165,1653.723-384.062,1654.311z"/>
		<path id="path3686-3-7" sodipodi:nodetypes="cszzsc" style="&st0;" d="M-439.08,1704.325
			c-5.205,9.486-12.098,18.529-17.557,24.566c-5.683,6.281-1.384,14.492,6.562,13.283c7.945-1.209,10.733-12.551,12.081-17.598
			c1.346-5.047,4.549-11.871,3.484-16.688C-434.923,1706.014-435.704,1702.543-439.08,1704.325z"/>
		<path id="path3686-3-7-4" sodipodi:nodetypes="cszzsc" style="&st0;" d="M-433.978,1253.297
			c-4.685-9.57-9.216-20.043-16.072-25.562c-6.599-5.312-12.885-6.777-14.778,1.033c-1.896,7.811,7.542,14.693,11.7,17.854
			c4.159,3.159,9.26,8.711,14.116,9.553C-437.119,1256.503-433.61,1257.096-433.978,1253.297L-433.978,1253.297z"/>
		<path id="path3686-3-7-4-5" sodipodi:nodetypes="cszssc" style="&st0;" d="M-527.989,1310.295c0,0-20.577-19.046-30.921-24.437
			c-18.223-9.496-24.212-3.012-23.354,5.648s16.36,11.941,22.874,14.41c2.812,1.065,18.919,5.754,27.19,6.188
			C-529.738,1312.237-527.989,1310.295-527.989,1310.295L-527.989,1310.295z"/>
		<path id="path3686-3-7-4-5-2" sodipodi:nodetypes="cscc" style="&st0;" d="M-471.22,1601.662
			c-7.394,3.18-12.435,6.941-17.923,11.281c-5.317,4.205-14.627,25.016,4.891,8.219
			C-481.559,1617.678-478.578,1615.616-471.22,1601.662L-471.22,1601.662z"/>
		
			<path id="path2891-5" sodipodi:nodetypes="csssssssssssssssssssssssssssssssssssssssssssssssssssssssssssssssssssssssssssssssssssssssssssssssssssssssssssssssssssssssssssssssssssssss" style="&st0;" d="
			M-429.815,1398.914c-44.603-21.765-135.853-67.068,17.035-12.776c2.871,1.021,31.453,6.461,2.129-8.517
			c-5.608-2.865-12.529-6.136-10.434-8.526c2.864-3.264,0.354-8.718-2.837-9.554c-20.411-5.354,4.368-7.812-6.878-15.42
			c-12.327-8.339-20.779-20.176-30.647-28.075c-62.271-49.843-51.703-82.833,12.919-14.262c5.798,6.151,13.303,3.398,24.201,9.638
			c6.001,3.437,13.4,14.494,20.417,22.257c3.302,3.653,7.735-4.492,5.225-8.85c-20.42-35.425-0.233-23.452,14.13-7.255
			c10.836,12.219,8.077-1.418,12.302-0.331c5.104,1.312,8.554,9.579,9.577,10.403c12.162,9.799,16.579-1.003,10.336-5.407
			c-7.744-5.463-0.163-7.931,2.193-9.498c2.347-1.562-25.764-30.974-13.395-32.514c13.166-1.64,5.432-8.661,2.864-11.01
			c-27.395-25.073-30.105-73.556,9.537-23.003c6.056,7.722,10.868,18.846,17.863,31.432c1.905,3.432-1.113,18.33,11.643,7.682
			c2.037-1.7,1.962-1.176,3.1-1.959c2.557-1.76,3.993,10.185,6.307,13.297c2.316,3.118,7.686,10.183,8.166,5.823
			c0.369-3.348,5.019-6.602,6.171-4.159c16.769,35.528,10.444-2.662,12.775-3c7.836-1.134-8.261-32.299,8.791-18.972
			c1.239,0.968,6.644-2.142,6.821-5.965c3.137-66.997,23.918-74.644,17.111-3.409c-0.229,2.403-2.405,3.955,4.729,7.098
			c2.188,0.964,9.847-0.492,6.894,6.25c-3.393,7.745,2.914,29.239,8.983,7.59c1.332-4.753,8.557-23.664,11.2-6.24
			c0.562,3.705,2.197,25.895,9.345,8.809c55.577-132.866,80.316-123.578,21.895-4.975c-16.954,34.418,3.92,18.547,7.334,13.852
			c6.051-8.322,28.299-46.567,28.4-28.45c0.005,0.937-2.944,3.398-2.773,5.286c0.379,4.183,4.631,7.633,9.286,0.176
			c17.621-28.229,30.117-30.153,28.337-19.041c-1.68,10.48,8.751-0.763,13.476-6.464c5.562-6.71,10.222-13.636,15.404-18.188
			c27.117-23.81,47.041-20.111,17.646,13.799c-5.625,6.489-17.43,10.41-25.828,20.117c-8.021,9.271-18.937,13.819-23.106,25.367
			c-1.476,4.083-19.528,16.397-3.292,12.686c2.6-0.595,2.425,3.646,3.44,5.067c3.628,5.074,5.501,5.867,12.697-0.808
			c41.101-38.119,67.387-9.984-12.733,30.111c-7.666,3.837-39.908,35.243-7.686,17.291c2.797-1.559,12.049-1.314,4.965,7.257
			c-2.383,2.883-34.26,27.216,11.237,5.528c4.414-2.104,6.45-0.19,7.938,9.342c2.091,13.384,24.936-8.388,31.065-10.365
			c44.478-14.354,63.403,16.63-20.601,21.962c-20.706,1.313-13.939,7.276-6.464,8.921c24.986,5.498-9.643,11.914-13.005,12.729
			c-15.973,3.861-34.945-2.929-33.521,8.512c1.337,10.716,13.244-4.621,32.398,0.019c3.484,0.846,22.146,14.402-13.334,12.097
			c-7.048-0.458-11.83,8.936,13.801,8.159c12.986-0.393,16.348,9.96-4.076,7.419c-5.817-0.724-26.372-1.438,13.248,10.374
			c184.503,55.005,82.376,57.651-9.05,28.746c-6.29-1.989-53.812-6.028-10.374,10.647c8.008,3.074,18.194,11.336-4.035,10.371
			c-9.399-0.408-22.666,4.885,1.263,12c11.552,3.436,30.07,14.685,1.585,10.566c-18.294-2.645-12.563,9.057,2.026,13.934
			c45.418,15.18,78.172,56.602,15.507,34.053c-5.106-1.838-11.153-5.543-16.885-9.857c-17.549-13.219-27.324-15.58-22.646-5.936
			c1.168,2.41,13.356,10.686-7.246,2.787c-26.54-10.17,1.787,13.586,8.333,20.713c6.545,7.129,51.24,40.418-7.532,14.73
			c-3.346-1.465,30.288,27.199,5.484,18.738c-3.776-1.289-3.114,5.574-1.389,7.277c15.425,15.211,13.867,39.422-15.044,5.189
			c-4.589-5.434-4.047-11.748-11.668-7.105c-4.718,2.873-8.896-6.916-12.705-12.744c-13.039-19.953-41.649-53.373-12.069,0.953
			c9.84,18.072-4.438,16.041-10.47,8.236c-29.465-38.143-22.235-11.488-13.394,9.441c1.743,4.127-10.204,0.086-10.743,3.695
			c-0.554,3.709,4.676,23.691,13.711,34.949c20.313,25.311-5.499,79.871-28.162,11.176c-3.152-9.555-0.819-27.041-4.617-41.303
			c-1.338-5.027,0.414-13.445-2.812-18.543c-5.607-8.859-17.68-13.73-10.285,18.359c0.84,3.645-1.825,2.598-3.816,1.072
			c-3.734-2.857-14.219-6.705-8.869,2.734c12.273,21.658-13.985,51.406-16.021,15.275c-0.547-9.695,1.647-11.295,1.35-16.771
			c-0.117-2.148-2.513-7.238-1.306-11.98c3.946-15.51-8.107-21.729-9.518-2.781c-2.225,29.881-12.652,1.604-12.134,6.084
			c5.308,45.801-28.973,54.707-15.16-0.766c0.859-3.451-2.144-8.264-1.276-12.383c2.316-11.02,2.252-23.984,1.073-34.711
			c-2.065-18.799-7.551-30.715-9.629-13.221c-0.585,4.922-3.35,11.797-5.065,21.902c-0.872,5.133-8.979,5.322-9.536,1.277
			c-1.612-11.709-5.756-15.424-7.966-5.885c-8.582,37.061-34.498,77.057-23.989,15.816c0.622-3.623,0.321-7.896,2.017-12.023
			c12.638-30.777-7.712-5.883-9.337-1.795c-10.9,27.412-16.84,5.066-8.601-11.33c11.54-22.963,7.679-15.908,8.218-16.99
			c2.988-5.996,1.848-11.139-3.753-3.957c-4.495,5.764-0.111-6.617-6.077-1.168c-3.479,3.18-12.137,13.287-17.542,17.986
			c-6.006,5.221-8.182,1.725-4.646-2.939c5.24-6.91-1.554-9.756-5.198-0.342c-0.944,2.439-4.238,4.102-7.17,6.379
			c-22.349,17.357-16.511-1.193,2.626-17.066c3.209-2.662,6.956-5.246,11.267-7.248c1.309-0.607,8.042-10.209,3.076-9.254
			c-19.57,3.764,1.888-6.301,3.8-8.803c3.849-5.033,11.559-6.922,13.851-7.729c5.468-1.926,12.585-3.008,17.419-5.756
			c14.817-8.422-30.46,4.172-18.268-8.948c33.737-36.306-1.561-18.558-23.453-2.26c-34.519,25.697-95.311,10.766-6.943-12.771
			c16.974-4.521,24.305-9.832,5.701-9.605c-0.678,0.01-5.837-1.219-10.337,1.202c-12.599,6.778-29.587,2.45,9.51-8.958
			c2.636-0.77,27.55-11.48-3.35-8.82c-5.852,0.504-10.488,2.864-13.936,4.164c-18.802,7.096-8.947-10.582,4.448-14.186
			c6.312-1.696,7.934-17.718-6.281-16.012c-8.509,1.021-20.109-4.354-29.818-4.752c-8.854-0.363-17.422,0.273-23.161,0.727
			c-60.271,4.748-45.022-41.218,37.645-25.702c11.119,2.087,40.685,13.03,31.035-6.547
			C-439.93,1405.441-429.815,1403.257-429.815,1398.914L-429.815,1398.914L-429.815,1398.914z"/>
	</g>
</g>
</svg>
